Patient4_TMGait_0pt6_01_left_46_EMG.mot
version=1
nRows=33
nColumns=33
inDegrees=no
endheader
time	1LAddLong	2LGlutMax	3LGlutMed	4LIliopsoas	5LSemiMemb	6LBicFemLong	7LRecFem	8LVastMed	9LVastLat	10LGasMed	11LTibAnt	12lTibPost	13LPeroneusLong	14LSol	15LExtDigLong	16LFlexDigLong	17RAddLong	18RGlutMax	19RGlutMed	20RIliopsoas	21RSemiMemb	22RBicFemLong	23RRecFem	24RVastMed	25RVastLat	26RGasMed	27RTibAnt	28RTibPost	29RPeroneusLong	30RSol	31RExtDigLong	32RFlexDigLong
56.835	0.005493	-0.004272	0.30502	0.014038	0.031586	-0.001678	0.09079	0.005341	-0.012512	0.015411	-0.035248	-0.02655	0.22125	-0.71259	0.011597	-0.33295	0.027618	-0.18692	-0.4335	-0.094452	-0.168	0.67078	-0.40344	-0.31067	0.12451	-0.002136	0.03891	-0.011444	0.36407	-0.046844	-0.00061	-0.011292
56.836	0.006561	-0.016937	0.30441	0.003967	0.020905	0.011597	0.079041	0.003052	-0.019684	-0.76324	0.019531	-0.058594	0.23666	-0.39032	-0.030212	0.24124	-0.033264	-0.13336	-0.23056	-0.067139	-0.34378	0.80124	-0.24384	-0.27252	0.26871	0.001526	-0.066528	-0.008087	0.69885	-0.064697	-0.001221	-0.012817
56.837	0.014038	0.015106	0.29236	-0.00824	0.000763	0.034027	0.061798	0.005951	-0.003204	-0.47485	-0.022888	-0.020294	0.14816	0.44098	-0.037231	-0.039368	-0.096283	0.11215	0.013733	-0.11276	0.016632	0.65109	0.001068	-0.31036	0.27679	0.001831	-0.12085	-0.006561	-0.17136	-0.073853	-0.004578	-0.002747
56.838	0.021057	0.048828	0.30899	0.003967	-0.010376	-0.084076	0.042267	0.005341	-0.002594	-0.46432	0.014191	0.024719	0.019836	0.59906	-0.076599	0.065613	-0.13153	0.15671	0.58838	-0.14389	0.32883	0.38742	0.061798	-0.43854	0.14145	0.003662	-0.015869	-0.000763	-0.65506	-0.062714	-0.002289	0
56.839	0.017395	0.018463	0.3157	0.000763	0.001831	-0.14694	0.04425	0.000153	-0.014038	-0.83893	-0.009155	0.048981	-0.03952	0.13199	-0.091095	0.10742	-0.13107	0.087891	0.35263	0.028381	0.50125	0.17593	0.11887	-0.50034	0.40314	0.005341	0.14511	-0.004425	-0.57159	-0.084991	-0.002289	-0.003662
56.84	0.006256	0.014191	0.31464	-0.001678	0.018311	-0.11353	0.033875	0.001526	-0.028076	-0.84717	0.015869	0.027008	-0.041504	0.005188	-0.06485	-0.20157	-0.10742	-0.027618	-0.29434	0.11093	0.78079	0.018005	0.12039	-0.62057	0.71167	0.003967	0.28046	-0.003815	-0.51651	-0.090637	-0.001984	0.002289
56.841	0.011444	0.049744	0.34073	-0.011444	0.011597	-0.12466	0.020294	0.001831	-0.022888	-0.54489	0.012817	0.027008	-0.054321	-0.027618	-0.028992	-0.014496	-0.073547	0.080109	-0.55039	0.1683	0.77667	-0.077209	0.13748	-0.5571	0.64682	0.001984	0.35568	-0.001831	-0.29816	-0.062256	0.003967	-0.001068
56.842	0.002594	0.069885	0.34714	0.015869	0.011902	-0.13001	-0.006866	0.003052	-0.017548	-0.33737	0.010529	0.016937	-0.078735	0.098114	-0.01236	-0.032806	-0.063019	0.21301	-0.64712	0.13626	0.55618	-0.21912	-0.077057	-0.37491	0.42221	0.003052	0.050354	-0.004272	-0.5452	-0.086517	-0.003052	-0.002136
56.843	-0.014038	0.062561	0.37552	0.014801	0.016327	-0.112	-0.014191	0.002289	-0.018768	-0.25848	0.017242	0.00885	-0.093079	0.1001	0.008392	-0.031281	-0.068512	0.46112	-0.10971	0.013733	0.4126	-0.25909	-0.26627	-0.29251	0.046082	0.007019	-0.56366	-0.007782	-0.001678	-0.092468	-0.000916	-0.002136
56.844	-0.008392	0.13901	0.37628	0.002441	0.005798	-0.038757	-0.015717	0.006714	-0.018158	-0.22675	0.015869	-0.00412	-0.1001	0.088654	0.011902	-0.012054	-0.066833	0.45883	0.31616	-0.005798	0.36453	-0.21362	-0.36316	-0.10544	0.033722	0.005951	-0.51071	-0.006866	-0.006104	-0.06424	0.001984	-0.00885
56.845	-0.005188	0.11322	0.39871	0.003662	0.005341	0.005951	-0.003052	0.002594	-0.02594	-0.23132	0.017242	-0.022125	-0.08606	0.19684	0.02655	0.010681	-0.014801	0.29053	1.0118	-0.017853	0.31189	-0.28702	-0.40024	0.086365	0.012207	0.001526	-0.011749	-0.010376	1.2489	-0.001831	-0.000458	-0.001984
56.846	0.000305	0.11078	0.41992	-0.004578	-0.004272	0.028687	0.01297	0.003815	-0.029755	-0.17624	0.003204	-0.018158	-0.063629	0.25375	0.023499	-0.002747	0.022888	0.14679	0.84244	-0.071106	0.28519	-0.41351	-0.578	0.55389	0.13901	-0.000763	0.15808	-0.007935	1.0355	0.00885	-0.003357	-0.003815
56.847	-0.001984	0.1384	0.43121	-0.006256	-0.031738	0.039368	0.002747	0.007629	-0.023956	-0.12985	0.009766	-0.01709	-0.031586	0.18829	0.021057	-0.010529	0.063782	0.004883	0.61371	-0.079956	0.25085	-0.49561	-0.6749	0.87296	0.029297	0.000305	-0.01358	-0.010223	0.64987	0.049438	-0.000916	-0.007935
56.848	0.013275	0.10925	0.43778	-0.003967	-0.04425	0.007782	0.027008	0.00946	-0.032349	-0.071259	0.006561	-0.015411	-0.043945	0.14862	0.022888	-0.011292	0.068817	0.064392	0.26749	-0.079498	0.26276	-0.56244	-0.32135	0.8345	0.13428	-0.000153	-0.19012	-0.004272	-0.21637	-0.044403	-0.001526	-0.007019
56.849	0.014954	0.11002	0.4303	0.010071	-0.042419	-0.0177	0.01358	0.009155	-0.044403	-0.050659	0.005341	-0.007477	-0.053711	0.19745	0.016022	-0.004425	0.068817	0.13825	-0.008698	-0.053406	0.2124	-0.69916	0.079956	0.70114	0.19196	0.006866	-0.075684	-0.005035	-0.68527	-0.12695	-0.002441	0
56.85	0.006561	0.077667	0.44464	0.00061	-0.02655	-0.10941	0.015411	0.003815	-0.032501	-0.012512	0.000305	-0.014038	-0.056	0.18051	0.024719	0.007324	0.06897	0.10986	-0.42511	0.051117	0.12497	-0.76141	0.12085	0.61981	-0.041504	-0.001831	-0.050659	-0.001984	0.96237	-0.009308	-0.001221	-0.007477
56.851	0.015106	0.062256	0.44189	-0.00885	0.009308	-0.048218	0.016479	0.004578	-0.038452	-0.017395	0.00412	-0.017548	-0.044556	0.18829	0.027618	-0.003815	0.06958	0.036926	-0.92606	0.099945	0.036011	-0.71838	0.013123	0.90439	-0.24521	-0.006256	0.001526	0	0.4686	0.083313	-0.001068	-0.007324
56.852	-0.002594	0.059662	0.45197	0.004425	-0.002899	0.061188	0.040436	0.002747	-0.03952	-0.039063	-0.000153	-0.008698	-0.015259	0.12558	0.026093	0.01358	0.071869	-0.085602	-1.1342	0.02594	0.079803	-0.78186	0.045471	0.77515	-0.215	-0.005035	-0.015411	-0.007172	0.49011	0.003815	-0.001068	-0.006409
56.853	0.004578	0.057526	0.46906	0.006866	0.006714	0.052032	0.022583	-0.00412	-0.049744	-0.19547	0.004883	-0.015869	-0.001221	0.093842	0.035706	0.012665	0.097656	-0.061646	-0.31677	0.020905	0.24338	-0.81161	0.42923	0.079651	0.22644	-0.003204	0.02121	-0.006866	0.46173	0.01297	-0.002747	-0.002441
56.854	0.002747	0.042725	0.46661	0.006409	0.000763	-0.008087	0.036774	-0.002747	-0.039978	-0.35812	-0.003662	-0.005646	-0.005188	0.11047	0.090027	0.007629	0.09201	-0.24139	0.14969	0.012817	0.1767	-0.74921	0.77499	-0.51773	0.10559	-0.00946	0.044403	-0.003052	0.16144	0.076294	0.003662	-0.003052
56.855	-0.002289	0.005951	0.47211	0.021057	0.010071	-0.007782	0.049591	0.005341	-0.050201	-0.15976	-0.019989	-0.016327	-0.037231	0.092773	0.10346	0.006256	0.032043	-0.38574	1.0861	-0.012817	-0.16052	-0.61035	0.88882	-0.074463	-0.30502	-0.009155	0.009613	0.002441	0.003967	0.075073	-0.000763	-0.000153
56.856	0.006104	0.012512	0.48538	0.012817	0.021973	0.041046	0.017548	-0.003052	-0.045776	0.16419	-0.027771	-0.017548	0.019531	0.023499	0.046082	0.012207	0.084534	-0.38193	0.33951	0.063171	-0.069885	-0.64697	0.92911	0.91553	-0.93628	-0.002899	-0.046692	-0.003204	0.053406	0.051117	0.000305	0.000153
56.857	0.003052	0.005646	0.47089	-0.002441	0.027313	0.097198	0.009918	0.002899	-0.057831	0.24796	-0.019531	-0.013275	0.059967	0.08316	-0.044861	0.015106	0.14786	-0.40802	-0.69778	0.10788	0.40985	-0.64972	0.88959	0.90088	-0.70053	0.001526	-0.05127	-0.002441	0.1503	0.044098	-0.001221	0.002441
56.858	0.005646	0.054474	0.47241	0.005188	0.016327	0.057831	0.008392	0.00946	-0.063171	0.070496	0.037079	-0.012054	0.056915	0.061646	-0.028992	0.01297	0.17593	-0.23697	-1.2801	0.072021	0.33356	-0.65475	0.62164	0.68878	-0.5751	0.00473	-0.036926	0.00061	0.60532	0.019531	0.000763	0.002136
56.859	0.001373	0.016022	0.48447	0.000305	-0.005341	0.061188	0	0.007629	-0.082397	0.11383	0.073242	-0.021515	0.000153	0.068817	-0.024109	0.006561	0.18097	-0.12634	-0.044403	-0.016479	0.12543	-0.62973	0.54916	0.84473	-0.45807	0.006714	-0.05188	-0.004272	0.18417	-0.072479	0.000763	0.001068
56.86	0.01358	-0.023956	0.4921	0.013733	-0.013123	0.061798	-0.033875	0.003357	-0.062256	0.30441	0.064392	-0.003662	-0.03479	0.087585	-0.044098	0.010376	0.17731	-0.19486	1.3983	-0.015717	-0.059357	-0.60333	0.30258	0.47501	-0.14618	-0.00824	0.096283	-0.022278	-0.22186	-0.10254	-0.001831	-0.000305
56.861	0.019379	-0.019684	0.47379	0.015106	-0.0177	0.058594	-0.051575	0.00351	-0.04837	0.48904	0.028992	0.005035	-0.034332	0.098877	-0.086975	0.010071	0.18829	-0.32898	1.2163	-0.036316	-0.30746	-0.54688	-0.056458	0.40863	0.21759	-0.012054	0.21576	-0.014038	-0.19028	0.007629	-0.002289	-0.006714
56.862	0.025635	-0.051575	0.47546	-0.000763	-0.003052	-0.004272	-0.079956	-0.002747	-0.043335	0.18051	0.021362	0.003357	-0.01358	0.062103	-0.062714	0.011139	0.21561	-0.38116	-0.003662	-0.02655	-0.31464	-0.38391	-0.28015	-0.34531	0.42664	-0.010529	0.30609	-0.010071	-0.23743	-0.010681	-0.001373	-0.002747
56.863	0.032806	-0.1033	0.48859	-0.007324	0.014343	-0.031586	-0.085297	0.007477	-0.032043	0.25253	0.0177	0.003357	0.022736	0.086212	-0.057526	-0.005951	0.13382	-0.30197	-1.0002	-0.20432	-0.29724	-0.16892	-0.12207	-1.515	0.2478	-0.010376	0.33249	-0.003967	-0.21164	-0.08667	0.00412	-0.009918
56.864	0.024872	-0.098114	0.49683	-0.002747	0.00412	-0.015259	-0.098572	0.015259	-0.018616	0.53833	-0.031433	-0.016785	0.021667	0.081787	-0.054321	-0.012207	-0.010681	-0.092621	-0.93353	-0.28061	0.41321	0.052795	-0.21316	-1.604	-0.078278	-0.005493	0.27588	-0.003967	-0.18906	-0.050201	0.001831	-0.013885
56.865	0.028992	-0.15884	0.51163	0.009308	-0.013123	0.014496	-0.12543	0.009766	-0.014343	-0.093231	-0.03006	-0.014648	0.001678	0.034943	-0.015564	-0.001373	-0.088501	-0.027008	-0.59738	-0.24185	0.64285	0.15976	-0.7782	-0.60455	0.23911	-0.004883	-0.033569	-0.007477	-0.13001	-0.010834	0.000916	-0.015106
56.866	0.020599	-0.12268	0.5014	0.010834	-0.029449	0.00061	-0.09964	0.001984	-0.014038	-0.37247	-0.028992	-0.022125	-0.031586	-0.007629	0.021362	0.002899	-0.068054	-0.096741	-0.077209	0.013123	0.34958	0.12711	-1.069	-0.39841	0.57693	-0.004578	-0.17151	-0.003815	-0.14938	-0.032501	0.002747	-0.014191
56.867	0.013123	-0.14297	0.50964	-0.001373	-0.014801	-0.045929	-0.084686	0.001373	-0.005951	0.096893	-0.023956	-0.014191	-0.028534	-0.003052	0.019073	-0.013275	-0.07782	-0.16693	-0.049133	0.46783	0.40543	0.12909	-0.86212	-0.36743	0.61645	-0.002136	-0.31448	0.000458	-0.1329	-0.077667	0.001221	-0.021362
